<?xml version="1.0" standalone="no"?>
<!DOCTYPE svg PUBLIC "-//W3C//DTD SVG 20010904//EN"
 "http://www.w3.org/TR/2001/REC-SVG-20010904/DTD/svg10.dtd">
<svg version="1.0" xmlns="http://www.w3.org/2000/svg"
 width="390.000000pt" height="390.000000pt" viewBox="0 0 390.000000 390.000000"
 preserveAspectRatio="xMidYMid meet">
<metadata>
Created by potrace 1.14, written by Peter Selinger 2001-2017
</metadata>
<g transform="translate(0.000000,390.000000) scale(0.100000,-0.100000)"
fill="#000000" stroke="none">
<path d="M1967 3422 c-10 -10 -17 -26 -17 -35 0 -20 -47 -34 -69 -20 -9 6 -16
20 -16 31 0 28 -12 37 -29 23 -9 -7 -29 -9 -54 -5 -37 6 -44 3 -71 -23 -24
-25 -37 -30 -68 -28 -21 1 -49 -3 -63 -10 -14 -7 -42 -15 -62 -19 -42 -8 -78
-46 -78 -82 0 -22 -21 -41 -94 -86 -28 -17 -112 -52 -120 -50 -18 6 -55 -29
-66 -63 -7 -20 -9 -52 -6 -71 8 -40 -10 -47 -24 -9 -5 14 -14 25 -20 25 -6 0
-22 -11 -36 -25 -14 -14 -29 -25 -34 -25 -16 0 -30 -38 -30 -83 0 -64 -37 -92
-144 -106 -5 0 -3 -8 4 -16 13 -15 10 -17 -24 -19 -30 -2 -43 -31 -23 -54 9
-10 17 -27 17 -37 0 -32 23 -97 37 -102 25 -10 15 -43 -14 -49 -25 -5 -28 -11
-30 -47 -2 -23 4 -60 12 -82 10 -25 14 -59 11 -89 -4 -42 -1 -51 20 -70 20
-17 25 -33 29 -89 4 -58 2 -73 -15 -94 -25 -32 -28 -63 -4 -39 8 9 19 16 24
16 10 0 20 -26 20 -54 0 -13 3 -26 7 -30 10 -9 13 -32 17 -96 3 -75 71 -250
96 -250 6 0 10 -5 10 -10 0 -6 14 -24 30 -40 32 -31 40 -53 15 -44 -22 9 -18
-2 11 -29 25 -24 26 -24 8 -63 -15 -34 -17 -68 -15 -245 2 -186 0 -213 -19
-269 -29 -86 -62 -135 -137 -206 -47 -44 -62 -64 -52 -70 7 -4 14 -3 17 4 2 7
12 12 23 12 10 0 19 4 19 10 0 5 -8 7 -17 4 -15 -5 -16 -4 -3 5 20 14 47 14
52 -1 3 -7 10 -8 17 -4 11 7 11 10 0 17 -11 7 -11 9 -1 9 7 0 15 -6 18 -14 3
-8 13 -12 24 -9 11 3 16 11 13 19 -6 16 22 20 32 4 8 -12 25 -13 25 -1 0 5
-13 14 -30 21 -39 16 -39 34 0 25 19 -4 30 -3 30 4 0 6 -4 11 -10 11 -20 0 -9
20 14 26 41 10 69 48 61 83 -4 17 -13 31 -21 31 -8 0 -14 -3 -13 -7 1 -5 -2
-18 -6 -31 -9 -28 -30 -23 -29 6 0 12 -3 19 -8 16 -4 -3 -8 2 -8 10 0 8 5 18
10 21 6 4 8 11 4 16 -3 5 1 21 10 34 9 13 16 31 16 38 0 8 9 22 19 31 11 10
21 32 23 50 l3 31 18 -38 c9 -21 16 -41 15 -45 -1 -4 2 -14 5 -22 13 -33 12
-56 -3 -67 -13 -11 -12 -12 9 -13 24 0 24 0 5 -15 -11 -8 -14 -15 -6 -15 21 0
13 -30 -8 -30 -11 0 -20 -4 -20 -10 0 -5 5 -10 10 -10 6 0 10 -6 10 -14 0 -8
11 -16 23 -20 51 -12 99 -70 109 -130 4 -22 34 -44 45 -33 4 5 1 12 -7 17 -8
5 -12 12 -9 15 10 9 39 -6 39 -20 0 -7 14 -18 32 -24 17 -6 39 -17 47 -25 9
-8 44 -21 78 -30 35 -8 81 -25 103 -36 22 -11 54 -22 72 -24 18 -2 34 -8 36
-15 2 -6 9 -11 15 -11 6 0 18 -6 26 -13 9 -8 37 -20 64 -27 29 -8 47 -18 47
-27 0 -10 7 -14 18 -11 23 6 57 -17 47 -31 -4 -7 0 -8 10 -4 10 3 20 1 24 -5
9 -15 42 -17 74 -4 16 7 36 12 46 12 10 0 26 9 35 19 16 18 16 20 -13 34 -23
11 -28 12 -24 2 13 -34 -151 -37 -182 -3 -7 8 -4 9 13 5 12 -3 20 -1 16 4 -3
5 -20 9 -37 9 -27 1 -29 2 -14 11 9 6 25 9 35 8 9 -2 51 1 92 6 41 5 89 8 106
6 18 -1 49 7 70 18 21 12 47 21 56 21 11 0 18 7 18 19 0 14 10 20 39 25 27 4
42 12 46 26 3 11 10 20 15 20 5 0 6 -7 3 -17 -4 -10 -2 -14 5 -10 6 4 13 20
17 35 9 43 43 92 71 102 14 6 22 15 19 21 -4 6 11 26 34 45 23 20 41 41 41 47
0 7 10 17 22 22 12 6 26 19 32 30 6 11 17 24 24 28 6 4 12 17 12 27 0 11 7 36
16 57 38 86 43 100 57 143 26 79 47 134 57 152 6 10 10 31 10 46 0 16 14 60
32 98 35 76 33 71 49 134 6 25 15 59 20 76 5 17 9 40 9 52 0 12 4 22 9 22 5 0
12 11 15 25 7 26 30 34 40 13 3 -7 4 3 2 22 -4 41 19 107 43 119 9 5 24 22 33
38 15 26 15 32 2 58 -12 24 -12 30 0 44 14 16 25 90 25 163 0 20 5 39 11 43 6
4 10 30 10 58 -1 29 2 62 6 75 6 21 4 22 -18 17 -39 -10 -44 20 -12 66 14 21
32 40 40 43 8 3 14 9 14 13 0 15 -55 68 -70 68 -12 0 -14 12 -12 59 1 33 -3
75 -10 95 -6 20 -12 56 -13 81 -2 84 -100 250 -172 291 -20 11 -30 28 -37 60
-8 33 -11 38 -14 21 -3 -22 -7 -23 -40 -17 -48 9 -45 7 -81 68 -67 115 -94
131 -202 122 -54 -5 -82 -12 -86 -21 -10 -26 -47 -14 -84 26 -38 41 -64 49
-100 30 -16 -9 -24 -6 -44 16 -26 29 -33 54 -13 54 6 0 8 3 5 6 -13 13 -37
-19 -37 -48 0 -28 -2 -30 -27 -23 -14 3 -53 8 -86 11 -73 5 -77 8 -73 44 4 35
4 35 -17 12z m-157 -32 c0 -5 -8 -10 -19 -10 -10 0 -24 -7 -31 -15 -12 -14
-40 -21 -40 -10 0 3 6 14 12 25 13 21 78 29 78 10z m-175 -50 c10 -16 -3 -29
-24 -23 -12 3 -17 11 -14 19 6 16 29 19 38 4z m-112 -40 c-3 -11 -12 -20 -19
-20 -20 0 -17 28 4 33 9 3 18 5 19 6 0 0 -1 -8 -4 -19z m1091 -6 c28 -11 17
-24 -18 -24 -34 0 -52 11 -39 24 8 8 37 8 57 0z m-1288 -169 c-22 -17 -46 -20
-46 -6 0 10 22 18 50 20 11 0 10 -4 -4 -14z m1549 -65 c3 -5 1 -10 -4 -10 -6
0 -11 5 -11 10 0 6 2 10 4 10 3 0 8 -4 11 -10z m-1747 -122 c7 -7 12 -16 12
-20 0 -15 -15 -8 -28 12 -13 22 -3 27 16 8z m1002 -14 c113 -4 115 -5 138 -34
24 -31 74 -60 103 -60 10 0 21 -4 24 -10 3 -5 15 -10 27 -10 14 0 18 5 14 16
-7 17 13 14 69 -11 17 -7 55 -17 85 -23 44 -8 57 -7 65 5 6 8 17 12 25 8 16
-6 40 -50 40 -73 0 -23 32 -111 44 -121 6 -5 22 -11 36 -13 16 -2 24 -9 21
-18 -2 -8 -3 -64 -3 -124 1 -72 -3 -115 -11 -125 -9 -11 -9 -15 1 -18 6 -3 12
-11 12 -18 0 -8 9 -19 19 -24 33 -18 46 -101 46 -296 -1 -131 -7 -218 -22
-320 -12 -77 -27 -182 -34 -234 -9 -68 -17 -98 -31 -110 -11 -9 -18 -29 -18
-50 0 -19 -3 -31 -7 -27 -4 4 -13 -10 -19 -31 l-12 -38 -1 38 c-1 44 -6 46
-33 11 -11 -14 -27 -23 -34 -20 -8 3 -23 -2 -34 -12 -11 -9 -28 -17 -37 -17
-17 0 -19 -4 -51 -73 -23 -50 -33 -42 -31 25 4 130 -41 259 -87 248 -23 -5
-59 19 -106 70 -28 31 -34 59 -19 85 7 10 1 20 -24 37 -41 28 -41 28 -71 4
-23 -18 -28 -19 -61 -5 -30 13 -37 13 -44 2 -6 -10 -15 -7 -36 15 -25 24 -26
27 -8 27 17 0 17 2 5 10 -8 5 -26 7 -40 4 -14 -3 -34 -7 -45 -9 -34 -6 -58 19
-50 53 5 25 13 32 49 41 56 14 86 72 53 100 -15 11 -27 3 -101 -64 -35 -32
-51 -71 -47 -118 2 -15 0 -45 -4 -66 -7 -42 -44 -71 -92 -71 -30 0 -131 -46
-154 -71 -24 -25 -57 -97 -49 -106 5 -4 3 -15 -3 -24 -16 -21 -54 -8 -67 23
-5 13 -9 17 -9 10 -1 -7 -6 -10 -11 -7 -6 4 -9 14 -8 23 2 10 -3 16 -11 14
-68 -15 -70 -15 -65 5 4 14 -3 25 -20 37 -22 14 -25 20 -16 36 12 22 -12 53
-49 65 -15 5 -20 12 -16 25 3 10 -4 44 -16 76 -17 44 -21 77 -20 138 3 128 1
171 -10 174 -11 5 -12 99 0 106 5 3 6 25 4 49 -6 48 17 114 42 123 8 3 15 12
15 20 0 8 6 14 13 14 9 0 12 9 9 29 -2 16 1 37 8 48 7 11 10 12 7 3 -2 -8 2
-28 9 -45 8 -18 13 -23 14 -12 0 21 20 23 20 2 0 -18 17 -20 23 -2 2 6 3 4 1
-6 -1 -9 5 -25 14 -34 12 -12 13 -18 4 -21 -26 -8 -2 -18 37 -14 23 2 38 8 35
13 -3 5 9 9 27 9 l32 0 -34 -23 c-19 -13 -42 -26 -51 -30 -25 -9 -23 -50 3
-73 12 -10 24 -18 28 -17 12 5 76 -10 90 -21 20 -16 60 -15 54 1 -3 7 -14 13
-24 13 -11 0 -19 7 -19 16 0 12 6 15 23 10 12 -4 48 -12 80 -18 33 -7 57 -17
57 -24 0 -7 12 -15 28 -17 22 -3 20 -4 -10 -6 -21 0 -38 -5 -38 -10 0 -15 202
-4 236 13 35 18 53 73 29 91 -10 8 -10 13 2 23 8 8 11 22 8 33 -5 13 -2 19 10
19 25 0 38 46 21 78 -27 51 -98 102 -130 93 -5 -1 -30 5 -55 13 -149 47 -247
63 -270 43 -23 -20 -139 -76 -145 -70 -5 6 26 44 71 88 24 24 29 35 21 43 -8
8 -8 15 -1 24 6 7 13 47 16 88 5 56 14 90 37 134 16 32 30 65 30 72 0 13 12
18 32 15 4 0 10 8 13 19 4 11 10 20 15 20 5 0 16 14 25 30 9 17 22 30 30 30 8
0 19 9 24 19 15 27 76 41 156 35 39 -3 122 -7 185 -10z m-1050 -33 c13 -25 13
-27 -6 -45 -24 -24 -34 -19 -34 17 0 49 20 64 40 28z m1990 -279 c0 -5 -7 -17
-15 -28 -14 -19 -14 -19 -15 2 0 11 3 24 7 27 9 10 23 9 23 -1z m-2143 -154
c-3 -8 -6 -5 -6 6 -1 11 2 17 5 13 3 -3 4 -12 1 -19z m-39 -40 c2 -9 -5 -18
-14 -22 -22 -8 -24 -5 -17 22 6 25 26 25 31 0z m28 -159 c-5 -39 -19 -54 -34
-36 -9 10 -9 20 1 40 17 37 38 35 33 -4z m2185 -11 c-4 -12 -13 -24 -19 -26
-16 -5 -15 45 1 51 20 7 27 -2 18 -25z m-1611 7 c0 -8 -9 -15 -20 -15 -22 0
-27 15 -7 23 21 9 27 7 27 -8z m352 -20 c21 -4 42 -13 49 -21 9 -11 2 -12 -43
-6 -71 9 -167 9 -200 -2 -19 -5 -28 -5 -28 3 0 6 7 11 15 11 8 0 15 4 15 9 0
5 8 11 18 14 25 5 132 1 174 -8z m-235 -41 c-3 -3 -12 -4 -19 -1 -8 3 -5 6 6
6 11 1 17 -2 13 -5z m348 -15 c-4 -5 3 -9 14 -9 12 0 21 -7 21 -15 0 -8 5 -14
11 -12 6 1 13 -4 15 -11 1 -7 0 -8 -3 -2 -2 5 -9 8 -14 5 -11 -7 -70 45 -63
57 3 4 10 6 15 2 5 -3 7 -10 4 -15z m1160 -59 c-5 -8 -11 -8 -17 -2 -6 6 -7
16 -3 22 5 8 11 8 17 2 6 -6 7 -16 3 -22z m-1238 -2 c13 -12 23 -25 23 -29 0
-8 -59 -34 -64 -28 -5 6 6 79 12 79 3 0 16 -10 29 -22z m-197 -9 c0 -11 -4
-17 -10 -14 -5 3 -10 13 -10 21 0 8 5 14 10 14 6 0 10 -9 10 -21z m-733 -36
c-11 -10 -27 8 -27 30 l0 21 16 -22 c9 -13 14 -26 11 -29z m49 -52 c-2 -45
-10 -78 -21 -93 l-17 -23 7 25 c4 14 9 41 11 60 15 119 27 137 20 31z m991 -9
c-10 -9 -23 -12 -34 -8 -10 4 -19 6 -21 4 -2 -2 -8 5 -14 15 -14 26 -2 33 33
20 26 -10 31 -9 37 5 6 15 7 15 10 -2 2 -10 -3 -25 -11 -34z m1110 2 c-3 -3
-12 -4 -19 -1 -8 3 -5 6 6 6 11 1 17 -2 13 -5z m-2037 -69 c0 -7 8 -27 17 -44
18 -30 17 -30 -10 -59 -22 -23 -27 -37 -27 -78 0 -42 5 -55 28 -77 19 -19 34
-25 50 -20 20 5 22 2 22 -36 0 -43 -14 -55 -25 -21 -4 11 -20 27 -36 35 -36
19 -69 85 -69 139 0 49 32 186 43 179 4 -2 7 -10 7 -18z m77 -467 c-3 -8 -6
-5 -6 6 -1 11 2 17 5 13 3 -3 4 -12 1 -19z m983 -18 c0 -11 -4 -20 -10 -20 -5
0 -10 9 -10 20 0 11 5 20 10 20 6 0 10 -9 10 -20z m-22 -152 c15 -15 16 -28 2
-28 -5 0 -10 7 -10 16 0 8 -4 13 -9 9 -5 -3 -12 -1 -16 5 -9 14 18 13 33 -2z
m132 -18 c0 -5 -4 -10 -10 -10 -5 0 -10 5 -10 10 0 6 5 10 10 10 6 0 10 -4 10
-10z m-739 -27 c-8 -15 -10 -15 -11 -2 0 17 10 32 18 25 2 -3 -1 -13 -7 -23z
m-181 7 c0 -5 -5 -10 -11 -10 -5 0 -7 5 -4 10 3 6 8 10 11 10 2 0 4 -4 4 -10z
m540 -75 c32 -27 101 -55 133 -55 18 0 38 -5 45 -12 12 -12 80 -20 96 -10 5 2
36 6 70 7 35 2 80 11 106 23 24 11 47 19 51 16 16 -9 -5 -43 -32 -53 -16 -5
-29 -17 -29 -25 0 -21 39 -21 46 -1 6 16 34 21 34 7 0 -5 9 -19 20 -32 25 -29
28 -90 4 -90 -13 0 -14 -3 -4 -15 9 -11 4 -19 -29 -42 -27 -19 -38 -33 -35
-45 4 -14 -3 -16 -50 -13 -71 4 -106 27 -106 69 1 42 41 90 68 82 26 -9 35 6
23 37 -7 19 -19 26 -48 30 -289 37 -296 39 -355 80 -32 21 -58 45 -58 53 0 15
25 9 50 -11z m-110 -30 c7 -8 25 -15 40 -15 22 0 30 -6 38 -29 6 -15 31 -46
56 -67 47 -39 66 -76 66 -127 0 -28 -2 -29 -33 -24 -29 5 -36 1 -51 -24 -9
-16 -25 -29 -34 -29 -16 1 -16 2 1 14 25 20 21 26 -18 26 -22 0 -35 5 -35 13
0 9 -11 12 -35 11 -41 -4 -53 10 -29 34 17 16 17 17 -4 20 -23 3 -40 42 -27
61 3 6 1 11 -5 11 -7 0 -9 8 -5 20 4 12 2 26 -3 33 -5 7 -12 22 -14 34 -5 18
1 25 31 37 46 19 46 19 61 1z m386 5 c19 0 34 -4 34 -9 0 -5 -14 -8 -31 -7
-17 1 -33 -4 -38 -12 -7 -12 -10 -11 -24 2 -8 9 -22 14 -30 11 -7 -3 -20 2
-28 11 -13 16 -10 17 35 11 27 -4 64 -7 82 -7z m-16 -236 c0 -8 -4 -14 -10
-14 -5 0 -10 9 -10 21 0 11 5 17 10 14 6 -3 10 -13 10 -21z m-1000 -171 c0
-13 -4 -23 -9 -23 -5 0 -9 16 -9 36 0 25 3 33 9 23 5 -8 9 -24 9 -36z m150 28
c0 -6 -4 -13 -10 -16 -5 -3 -10 1 -10 9 0 9 5 16 10 16 6 0 10 -4 10 -9z
m-220 -142 c0 -6 -4 -7 -10 -4 -5 3 -10 11 -10 16 0 6 5 7 10 4 6 -3 10 -11
10 -16z"/>
<path d="M2340 2223 c-15 -13 -35 -23 -43 -23 -12 0 -15 -14 -15 -72 0 -40 -1
-86 -2 -102 -1 -38 18 -59 26 -28 4 12 10 22 15 22 5 0 6 -7 3 -15 -4 -9 3
-19 20 -26 20 -9 24 -17 20 -34 -4 -16 2 -28 21 -43 31 -25 109 -39 128 -24
10 8 23 8 49 0 20 -6 45 -7 55 -3 15 6 14 9 -11 16 -16 4 -33 6 -38 3 -4 -3
-8 2 -8 10 0 21 95 22 137 1 17 -8 38 -12 47 -9 18 7 22 24 6 24 -5 0 -10 9
-10 20 0 24 -19 69 -39 94 -14 17 -14 18 -1 11 8 -4 29 -19 47 -31 51 -38 56
-33 50 50 -7 87 -13 99 -75 146 l-45 35 -155 1 c-148 0 -156 -1 -182 -23z
m258 -105 c26 -6 55 -20 65 -31 20 -24 23 -34 3 -18 -7 6 -40 22 -72 36 -66
27 -65 30 4 13z m-44 -37 c4 -5 -3 -7 -14 -4 -23 6 -26 13 -6 13 8 0 17 -4 20
-9z m-134 -72 c0 -27 -2 -30 -15 -19 -24 20 -19 39 13 49 1 1 2 -13 2 -30z
m190 -43 c-7 -9 -21 -16 -31 -16 -19 0 -19 2 -3 31 14 29 17 30 32 16 13 -13
13 -19 2 -31z"/>
<path d="M2302 1968 c-16 -16 -15 -38 2 -38 19 0 25 11 17 33 -5 14 -9 15 -19
5z"/>
<path d="M2060 1799 c0 -5 5 -7 10 -4 6 3 10 8 10 11 0 2 -4 4 -10 4 -5 0 -10
-5 -10 -11z"/>
<path d="M2307 1713 c-12 -12 -7 -38 13 -63 11 -14 20 -36 20 -50 l1 -25 10
24 c6 16 6 35 0 53 -13 38 -36 69 -44 61z"/>
<path d="M1176 731 c-4 -5 2 -16 12 -23 10 -7 21 -21 25 -30 6 -17 47 -26 47
-10 -1 24 -14 51 -28 55 -10 3 -24 8 -33 12 -10 3 -20 2 -23 -4z"/>
<path d="M1146 665 c-9 -19 -24 -39 -34 -44 -16 -10 -16 -10 0 -11 33 0 48 12
48 41 0 16 5 29 10 29 6 0 10 5 10 10 0 22 -19 8 -34 -25z"/>
<path d="M1180 640 c0 -13 7 -20 20 -20 18 0 19 2 8 20 -7 11 -16 20 -20 20
-5 0 -8 -9 -8 -20z"/>
<path d="M1200 596 c0 -9 5 -16 10 -16 6 0 10 4 10 9 0 6 -4 13 -10 16 -5 3
-10 -1 -10 -9z"/>
<path d="M820 591 c-37 -6 -135 -75 -145 -101 -3 -8 -36 -32 -73 -52 -89 -50
-266 -165 -355 -231 -40 -29 -90 -64 -112 -77 -58 -35 -135 -101 -135 -117 0
-11 163 -13 962 -13 529 0 959 2 957 4 -2 2 -65 11 -139 20 -316 39 -456 109
-730 366 -175 163 -182 170 -192 170 -4 0 -8 5 -8 11 0 6 9 9 19 6 14 -3 18
-1 14 9 -5 15 -7 15 -63 5z"/>
<path d="M2436 488 c-4 -15 1 -32 14 -48 46 -58 74 -108 107 -194 68 -177 60
-204 -67 -232 -46 -10 34 -12 470 -13 l525 0 -30 25 c-88 76 -206 142 -306
174 -118 37 -362 136 -460 186 -36 19 -72 34 -81 34 -8 0 -46 20 -84 45 -37
25 -71 45 -75 45 -4 0 -9 -10 -13 -22z"/>
<path d="M2200 390 c0 -5 5 -10 10 -10 6 0 10 5 10 10 0 6 -4 10 -10 10 -5 0
-10 -4 -10 -10z"/>
<path d="M2110 300 c-9 -6 -10 -10 -3 -10 6 0 15 5 18 10 8 12 4 12 -15 0z"/>
</g>
</svg>
